<?xml version="1.0" encoding="UTF-8"?>
<!DOCTYPE svg PUBLIC "-//W3C//DTD SVG 1.1//EN" "http://www.w3.org/Graphics/SVG/1.1/DTD/svg11.dtd">
<!-- Creator: CorelDRAW 2020 (64 Bit) -->
<?xml-stylesheet href="lobo_black.css" type="text/css"?>
<svg xmlns="http://www.w3.org/2000/svg" xml:space="preserve" width="199px" height="180px" version="1.1" style="shape-rendering:geometricPrecision; text-rendering:geometricPrecision; image-rendering:optimizeQuality; fill-rule:evenodd; clip-rule:evenodd"
viewBox="0 0 199 180.48"
 xmlns:xlink="http://www.w3.org/1999/xlink"
 xmlns:xodm="http://www.corel.com/coreldraw/odm/2003">
 <defs>
 <linearGradient id="id0" gradientUnits="userSpaceOnUse" x1="133.27" y1="171.75" x2="45.08" y2="10.41">
  <stop offset="0" style="stop-opacity:1; stop-color:#F58634"/>
  <stop offset="1" style="stop-opacity:1; stop-color:#332419"/>
 </linearGradient>
 </defs>
 <g id="Camada_x0020_1">
  <metadata id="CorelCorpID_0Corel-Layer"/>
  <g id="_2023607456448">
   <path class="fil0" d="M95.96 3.32c-20.59,-9.03 -57.29,8.1 -66.46,16.55 -17.51,16.14 -28.87,38.94 -29.92,64.58l-0.08 2.08 0.02 0.05c-0.45,24.82 8.92,47.65 24.6,64.66 16.13,17.52 38.94,28.87 64.58,29.92 25.64,1.05 49.29,-8.41 66.79,-24.53 11.98,-11.04 21.99,-24.35 27.45,-39.87 1.86,1.48 3.66,3.13 5.46,4.78 2.54,2.34 5.08,4.67 7.81,6.56l2.29 1.58 -0.46 -2.75c-1.96,-11.76 -4.46,-21.97 -7.58,-30.38 -3.15,-8.49 -6.95,-15.18 -11.48,-19.82l-0.84 0.83 -1.09 -0.47c-3.06,7.24 -7.83,15.01 -14.39,23.35 -6.59,8.39 -14.99,17.34 -25.3,26.9l-8.5 7.88 9.91 -6c4.85,-2.94 9.02,-5.84 12.75,-8.43 5.36,-3.72 9.76,-6.78 13.84,-8.3 -4.45,12.48 -11.21,23.69 -20.66,32.4 -14.49,13.35 -34.09,21.18 -55.35,20.31 -21.26,-0.87 -40.15,-10.26 -53.49,-24.74 -13.36,-14.49 -21.18,-34.09 -20.32,-55.35l0.01 -0.1c0.89,-21.22 10.28,-40.07 24.74,-53.4 25.07,-23.1 44.43,-22.98 55.67,-28.29z"/>
   <path class="fil1" d="M57.78 150.59c3.25,-6.24 6.41,-12.15 9.52,-17.74 3.07,-5.56 9,-16.63 17.76,-33.2l14.65 -27.82c0.99,-1.91 2.63,-5.22 4.94,-9.85 -4.83,-0.06 -8.53,-0.08 -11.12,-0.08 -11.52,0 -24.06,0.36 -37.61,1.1 0.56,-7.34 0.93,-15.81 1.15,-25.41l88.98 0 -1.3 26.08 -19.71 38.04 -12.54 24.93c-3.33,6.95 -7.09,14.94 -11.21,23.95l-43.51 0z"/>
  </g>
 </g>
</svg>
